<?xml version="1.0" encoding="UTF-8" standalone="no"?>
<!DOCTYPE svg PUBLIC "-//W3C//DTD SVG 1.0//EN" "http://www.w3.org/TR/2001/PR-SVG-20010719/DTD/svg10.dtd">
<svg width="24cm" height="15cm" viewBox="9 9 462 295" xmlns="http://www.w3.org/2000/svg" xmlns:xlink="http://www.w3.org/1999/xlink">
  <text font-size="12.8" style="fill: #000000;text-anchor:start;font-family:sans-serif;font-style:normal;font-weight:normal" x="300" y="70">
    <tspan x="300" y="70"></tspan>
  </text>
  <g>
    <line style="fill: none; fill-opacity:0; stroke-width: 1; stroke: #000000" x1="201.268" y1="48.0456" x2="211.144" y2="62.0366"/>
    <polygon style="fill: #000000" points="196.942,41.9184 206.794,47.2045 201.268,48.0456 198.625,52.9715 "/>
    <polygon style="fill: none; fill-opacity:0; stroke-width: 1; stroke: #000000" points="196.942,41.9184 206.794,47.2045 201.268,48.0456 198.625,52.9715 "/>
    <polygon style="fill: #000000" points="215.469,68.1638 205.617,62.8777 211.144,62.0366 213.787,57.1107 "/>
    <polygon style="fill: none; fill-opacity:0; stroke-width: 1; stroke: #000000" points="215.469,68.1638 205.617,62.8777 211.144,62.0366 213.787,57.1107 "/>
  </g>
  <g>
    <line style="fill: none; fill-opacity:0; stroke-width: 1; stroke: #000000" x1="296.341" y1="47.6576" x2="284.181" y2="62.4246"/>
    <polygon style="fill: #000000" points="301.109,41.868 298.612,52.7659 296.341,47.6576 290.893,46.4089 "/>
    <polygon style="fill: none; fill-opacity:0; stroke-width: 1; stroke: #000000" points="301.109,41.868 298.612,52.7659 296.341,47.6576 290.893,46.4089 "/>
    <polygon style="fill: #000000" points="279.413,68.2142 281.91,57.3163 284.181,62.4246 289.629,63.6733 "/>
    <polygon style="fill: none; fill-opacity:0; stroke-width: 1; stroke: #000000" points="279.413,68.2142 281.91,57.3163 284.181,62.4246 289.629,63.6733 "/>
  </g>
  <g>
    <text font-size="12.8" style="fill: #000000;text-anchor:start;font-family:sans-serif;font-style:normal;font-weight:normal" x="290" y="40">
      <tspan x="290" y="40"></tspan>
    </text>
    <g>
      <rect style="fill: #ffffff" x="290" y="10" width="50" height="30"/>
      <rect style="fill: none; fill-opacity:0; stroke-width: 2; stroke: #000000" x="290" y="10" width="50" height="30"/>
    </g>
    <text font-size="12.8" style="fill: #000000;text-anchor:start;font-family:sans-serif;font-style:normal;font-weight:normal" x="300" y="30">
      <tspan x="300" y="30">rails</tspan>
    </text>
  </g>
  <g>
    <g>
      <rect style="fill: #ffffff" x="150" y="10" width="70" height="30"/>
      <rect style="fill: none; fill-opacity:0; stroke-width: 2; stroke: #000000" x="150" y="10" width="70" height="30"/>
    </g>
    <text font-size="12.8" style="fill: #000000;text-anchor:start;font-family:sans-serif;font-style:normal;font-weight:normal" x="160" y="30">
      <tspan x="160" y="30">sinatra</tspan>
    </text>
  </g>
  <g>
    <g>
      <rect style="fill: #ffffff" x="150" y="180" width="70" height="30"/>
      <rect style="fill: none; fill-opacity:0; stroke-width: 2; stroke: #000000" x="150" y="180" width="70" height="30"/>
    </g>
    <text font-size="12.8" style="fill: #000000;text-anchor:start;font-family:sans-serif;font-style:normal;font-weight:normal" x="150" y="210">
      <tspan x="150" y="210"></tspan>
    </text>
    <text font-size="12.8" style="fill: #000000;text-anchor:start;font-family:sans-serif;font-style:normal;font-weight:normal" x="180" y="210">
      <tspan x="180" y="210"></tspan>
    </text>
    <text font-size="12.8" style="fill: #000000;text-anchor:start;font-family:sans-serif;font-style:normal;font-weight:normal" x="160" y="200">
      <tspan x="160" y="200">WEBrick</tspan>
    </text>
  </g>
  <g>
    <g>
      <rect style="fill: #ffffff" x="310" y="180" width="60" height="30"/>
      <rect style="fill: none; fill-opacity:0; stroke-width: 2; stroke: #000000" x="310" y="180" width="60" height="30"/>
    </g>
    <text font-size="12.8" style="fill: #000000;text-anchor:start;font-family:sans-serif;font-style:normal;font-weight:normal" x="310" y="210">
      <tspan x="310" y="210"></tspan>
    </text>
    <text font-size="12.8" style="fill: #000000;text-anchor:start;font-family:sans-serif;font-style:normal;font-weight:normal" x="330" y="210">
      <tspan x="330" y="210"></tspan>
    </text>
    <text font-size="12.8" style="fill: #000000;text-anchor:start;font-family:sans-serif;font-style:normal;font-weight:normal" x="320" y="200">
      <tspan x="320" y="200">Puma</tspan>
    </text>
    <text font-size="12.8" style="fill: #000000;text-anchor:start;font-family:sans-serif;font-style:normal;font-weight:normal" x="340" y="190">
      <tspan x="340" y="190"></tspan>
    </text>
  </g>
  <g>
    <g>
      <rect style="fill: #ffffff" x="390" y="180" width="80" height="30"/>
      <rect style="fill: none; fill-opacity:0; stroke-width: 2; stroke: #000000" x="390" y="180" width="80" height="30"/>
    </g>
    <text font-size="12.8" style="fill: #000000;text-anchor:start;font-family:sans-serif;font-style:normal;font-weight:normal" x="390" y="210">
      <tspan x="390" y="210"></tspan>
    </text>
    <text font-size="12.8" style="fill: #000000;text-anchor:start;font-family:sans-serif;font-style:normal;font-weight:normal" x="430" y="210">
      <tspan x="430" y="210"></tspan>
    </text>
    <text font-size="12.8" style="fill: #000000;text-anchor:start;font-family:sans-serif;font-style:normal;font-weight:normal" x="410" y="200">
      <tspan x="410" y="200"></tspan>
    </text>
    <text font-size="12.8" style="fill: #000000;text-anchor:start;font-family:sans-serif;font-style:normal;font-weight:normal" x="430" y="190">
      <tspan x="430" y="190"></tspan>
    </text>
    <text font-size="12.8" style="fill: #000000;text-anchor:start;font-family:sans-serif;font-style:normal;font-weight:normal" x="400" y="200">
      <tspan x="400" y="200">Rack::Test</tspan>
    </text>
  </g>
  <g>
    <g>
      <rect style="fill: #ffffff" x="240" y="180" width="50" height="30"/>
      <rect style="fill: none; fill-opacity:0; stroke-width: 2; stroke: #000000" x="240" y="180" width="50" height="30"/>
    </g>
    <text font-size="12.8" style="fill: #000000;text-anchor:start;font-family:sans-serif;font-style:normal;font-weight:normal" x="240" y="210">
      <tspan x="240" y="210"></tspan>
    </text>
    <text font-size="12.8" style="fill: #000000;text-anchor:start;font-family:sans-serif;font-style:normal;font-weight:normal" x="250" y="210">
      <tspan x="250" y="210"></tspan>
    </text>
    <text font-size="12.8" style="fill: #000000;text-anchor:start;font-family:sans-serif;font-style:normal;font-weight:normal" x="250" y="200">
      <tspan x="250" y="200">Thin</tspan>
    </text>
  </g>
  <g>
    <g>
      <rect style="fill: #ffffff" x="50" y="180" width="80" height="30"/>
      <rect style="fill: none; fill-opacity:0; stroke-width: 2; stroke: #000000" x="50" y="180" width="80" height="30"/>
    </g>
    <text font-size="12.8" style="fill: #000000;text-anchor:start;font-family:sans-serif;font-style:normal;font-weight:normal" x="50" y="210">
      <tspan x="50" y="210"></tspan>
    </text>
    <text font-size="12.8" style="fill: #000000;text-anchor:start;font-family:sans-serif;font-style:normal;font-weight:normal" x="90" y="210">
      <tspan x="90" y="210"></tspan>
    </text>
    <text font-size="12.8" style="fill: #000000;text-anchor:start;font-family:sans-serif;font-style:normal;font-weight:normal" x="60" y="200">
      <tspan x="60" y="200">Passenger</tspan>
    </text>
    <text font-size="12.8" style="fill: #000000;text-anchor:start;font-family:sans-serif;font-style:normal;font-weight:normal" x="110" y="190">
      <tspan x="110" y="190"></tspan>
    </text>
  </g>
  <text font-size="12.8" style="fill: #000000;text-anchor:start;font-family:sans-serif;font-style:normal;font-weight:normal" x="90" y="195">
    <tspan x="90" y="195"></tspan>
  </text>
  <g>
    <g>
      <rect style="fill: #ffffff" x="10" y="240" width="70" height="30"/>
      <rect style="fill: none; fill-opacity:0; stroke-width: 2; stroke: #000000" x="10" y="240" width="70" height="30"/>
    </g>
    <text font-size="12.8" style="fill: #000000;text-anchor:start;font-family:sans-serif;font-style:normal;font-weight:normal" x="10" y="270">
      <tspan x="10" y="270"></tspan>
    </text>
    <text font-size="12.8" style="fill: #000000;text-anchor:start;font-family:sans-serif;font-style:normal;font-weight:normal" x="40" y="270">
      <tspan x="40" y="270"></tspan>
    </text>
    <text font-size="12.8" style="fill: #000000;text-anchor:start;font-family:sans-serif;font-style:normal;font-weight:normal" x="20" y="260">
      <tspan x="20" y="260">Apache</tspan>
    </text>
    <text font-size="12.8" style="fill: #000000;text-anchor:start;font-family:sans-serif;font-style:normal;font-weight:normal" x="40" y="250">
      <tspan x="40" y="250"></tspan>
    </text>
  </g>
  <g>
    <g>
      <rect style="fill: #ffffff" x="100" y="240" width="60" height="30"/>
      <rect style="fill: none; fill-opacity:0; stroke-width: 2; stroke: #000000" x="100" y="240" width="60" height="30"/>
    </g>
    <text font-size="12.8" style="fill: #000000;text-anchor:start;font-family:sans-serif;font-style:normal;font-weight:normal" x="100" y="270">
      <tspan x="100" y="270"></tspan>
    </text>
    <text font-size="12.8" style="fill: #000000;text-anchor:start;font-family:sans-serif;font-style:normal;font-weight:normal" x="130" y="270">
      <tspan x="130" y="270"></tspan>
    </text>
    <text font-size="12.8" style="fill: #000000;text-anchor:start;font-family:sans-serif;font-style:normal;font-weight:normal" x="110" y="260">
      <tspan x="110" y="260">Nginx</tspan>
    </text>
  </g>
  <g>
    <line style="fill: none; fill-opacity:0; stroke-width: 1; stroke: #000000" x1="387.335" y1="175.397" x2="341.898" y2="154.521"/>
    <polygon style="fill: #000000" points="394.15,178.528 382.976,178.897 387.335,175.397 387.151,169.81 "/>
    <polygon style="fill: none; fill-opacity:0; stroke-width: 1; stroke: #000000" points="394.15,178.528 382.976,178.897 387.335,175.397 387.151,169.81 "/>
    <polygon style="fill: #000000" points="335.083,151.39 346.258,151.021 341.898,154.521 342.083,160.108 "/>
    <polygon style="fill: none; fill-opacity:0; stroke-width: 1; stroke: #000000" points="335.083,151.39 346.258,151.021 341.898,154.521 342.083,160.108 "/>
  </g>
  <g>
    <line style="fill: none; fill-opacity:0; stroke-width: 1; stroke: #000000" x1="264.255" y1="171.414" x2="263.205" y2="159.328"/>
    <polygon style="fill: #000000" points="264.903,178.886 259.057,169.356 264.255,171.414 269.02,168.491 "/>
    <polygon style="fill: none; fill-opacity:0; stroke-width: 1; stroke: #000000" points="264.903,178.886 259.057,169.356 264.255,171.414 269.02,168.491 "/>
    <polygon style="fill: #000000" points="262.557,151.856 268.403,161.386 263.205,159.328 258.44,162.251 "/>
    <polygon style="fill: none; fill-opacity:0; stroke-width: 1; stroke: #000000" points="262.557,151.856 268.403,161.386 263.205,159.328 258.44,162.251 "/>
  </g>
  <g>
    <line style="fill: none; fill-opacity:0; stroke-width: 1; stroke: #000000" x1="323.532" y1="173.573" x2="302.25" y2="156.345"/>
    <polygon style="fill: #000000" points="329.361,178.292 318.443,175.886 323.532,173.573 324.734,168.113 "/>
    <polygon style="fill: none; fill-opacity:0; stroke-width: 1; stroke: #000000" points="329.361,178.292 318.443,175.886 323.532,173.573 324.734,168.113 "/>
    <polygon style="fill: #000000" points="296.421,151.626 307.339,154.032 302.25,156.345 301.048,161.804 "/>
    <polygon style="fill: none; fill-opacity:0; stroke-width: 1; stroke: #000000" points="296.421,151.626 307.339,154.032 302.25,156.345 301.048,161.804 "/>
  </g>
  <g>
    <line style="fill: none; fill-opacity:0; stroke-width: 1; stroke: #000000" x1="201.267" y1="171.954" x2="211.143" y2="157.964"/>
    <polygon style="fill: #000000" points="196.942,178.082 198.624,167.029 201.267,171.954 206.794,172.795 "/>
    <polygon style="fill: none; fill-opacity:0; stroke-width: 1; stroke: #000000" points="196.942,178.082 198.624,167.029 201.267,171.954 206.794,172.795 "/>
    <polygon style="fill: #000000" points="215.469,151.836 213.787,162.889 211.143,157.964 205.617,157.123 "/>
    <polygon style="fill: none; fill-opacity:0; stroke-width: 1; stroke: #000000" points="215.469,151.836 213.787,162.889 211.143,157.964 205.617,157.123 "/>
  </g>
  <g>
    <line style="fill: none; fill-opacity:0; stroke-width: 1; stroke: #000000" x1="126.742" y1="174.851" x2="162.82" y2="155.067"/>
    <polygon style="fill: #000000" points="120.166,178.457 126.53,169.265 126.742,174.851 131.338,178.033 "/>
    <polygon style="fill: none; fill-opacity:0; stroke-width: 1; stroke: #000000" points="120.166,178.457 126.53,169.265 126.742,174.851 131.338,178.033 "/>
    <polygon style="fill: #000000" points="169.396,151.46 163.032,160.653 162.82,155.067 158.223,151.885 "/>
    <polygon style="fill: none; fill-opacity:0; stroke-width: 1; stroke: #000000" points="169.396,151.46 163.032,160.653 162.82,155.067 158.223,151.885 "/>
  </g>
  <g>
    <line style="fill: none; fill-opacity:0; stroke-width: 1; stroke: #000000" x1="62.1734" y1="232.102" x2="72.8266" y2="217.898"/>
    <polygon style="fill: #000000" points="57.6734,238.102 59.6734,227.102 62.1734,232.102 67.6734,233.102 "/>
    <polygon style="fill: none; fill-opacity:0; stroke-width: 1; stroke: #000000" points="57.6734,238.102 59.6734,227.102 62.1734,232.102 67.6734,233.102 "/>
    <polygon style="fill: #000000" points="77.3266,211.898 75.3266,222.898 72.8266,217.898 67.3266,216.898 "/>
    <polygon style="fill: none; fill-opacity:0; stroke-width: 1; stroke: #000000" points="77.3266,211.898 75.3266,222.898 72.8266,217.898 67.3266,216.898 "/>
  </g>
  <g>
    <line style="fill: none; fill-opacity:0; stroke-width: 1; stroke: #000000" x1="114.551" y1="231.826" x2="105.449" y2="218.174"/>
    <polygon style="fill: #000000" points="118.711,238.066 109.004,232.519 114.551,231.826 117.324,226.972 "/>
    <polygon style="fill: none; fill-opacity:0; stroke-width: 1; stroke: #000000" points="118.711,238.066 109.004,232.519 114.551,231.826 117.324,226.972 "/>
    <polygon style="fill: #000000" points="101.289,211.934 110.996,217.481 105.449,218.174 102.676,223.028 "/>
    <polygon style="fill: none; fill-opacity:0; stroke-width: 1; stroke: #000000" points="101.289,211.934 110.996,217.481 105.449,218.174 102.676,223.028 "/>
  </g>
  <g>
    <line style="fill: none; fill-opacity:0; stroke-width: 1; stroke: #000000" x1="169.56" y1="258.596" x2="200.433" y2="261.403"/>
    <polygon style="fill: #000000" points="162.091,257.917 172.503,253.843 169.56,258.596 171.597,263.802 "/>
    <polygon style="fill: none; fill-opacity:0; stroke-width: 1; stroke: #000000" points="162.091,257.917 172.503,253.843 169.56,258.596 171.597,263.802 "/>
    <polygon style="fill: #000000" points="207.902,262.082 197.49,266.156 200.433,261.403 198.396,256.197 "/>
    <polygon style="fill: none; fill-opacity:0; stroke-width: 1; stroke: #000000" points="207.902,262.082 197.49,266.156 200.433,261.403 198.396,256.197 "/>
  </g>
  <g>
    <line style="fill: none; fill-opacity:0; stroke-width: 1; stroke: #000000" x1="200.436" y1="279.699" x2="100" y2="290"/>
    <polygon style="fill: #000000" points="207.897,278.934 198.459,284.928 200.436,279.699 197.439,274.98 "/>
    <polygon style="fill: none; fill-opacity:0; stroke-width: 1; stroke: #000000" points="207.897,278.934 198.459,284.928 200.436,279.699 197.439,274.98 "/>
  </g>
  <g>
    <line style="fill: none; fill-opacity:0; stroke-width: 1; stroke: #000000" x1="100" y1="290" x2="77.4208" y2="275.631"/>
    <polygon style="fill: #000000" points="71.0934,271.605 82.2144,272.755 77.4208,275.631 76.8456,281.192 "/>
    <polygon style="fill: none; fill-opacity:0; stroke-width: 1; stroke: #000000" points="71.0934,271.605 82.2144,272.755 77.4208,275.631 76.8456,281.192 "/>
  </g>
  <g>
    <line style="fill: none; fill-opacity:0; stroke-width: 1; stroke: #000000" x1="279.399" y1="230.999" x2="274.595" y2="218.987"/>
    <polygon style="fill: #000000" points="282.185,237.962 273.829,230.534 279.399,230.999 283.113,226.82 "/>
    <polygon style="fill: none; fill-opacity:0; stroke-width: 1; stroke: #000000" points="282.185,237.962 273.829,230.534 279.399,230.999 283.113,226.82 "/>
    <polygon style="fill: #000000" points="271.809,212.023 280.166,219.451 274.595,218.987 270.881,223.165 "/>
    <polygon style="fill: none; fill-opacity:0; stroke-width: 1; stroke: #000000" points="271.809,212.023 280.166,219.451 274.595,218.987 270.881,223.165 "/>
  </g>
  <g>
    <line style="fill: none; fill-opacity:0; stroke-width: 1; stroke: #000000" x1="318.034" y1="231.61" x2="325.975" y2="218.375"/>
    <polygon style="fill: #000000" points="314.175,238.042 315.033,226.894 318.034,231.61 323.607,232.039 "/>
    <polygon style="fill: none; fill-opacity:0; stroke-width: 1; stroke: #000000" points="314.175,238.042 315.033,226.894 318.034,231.61 323.607,232.039 "/>
    <polygon style="fill: #000000" points="329.834,211.944 328.976,223.091 325.975,218.375 320.401,217.946 "/>
    <polygon style="fill: none; fill-opacity:0; stroke-width: 1; stroke: #000000" points="329.834,211.944 328.976,223.091 325.975,218.375 320.401,217.946 "/>
  </g>
  <g>
    <line style="fill: none; fill-opacity:0; stroke-width: 1; stroke: #000000" x1="242.413" y1="234.145" x2="215.565" y2="215.84"/>
    <polygon style="fill: #000000" points="248.61,238.37 237.531,236.868 242.413,234.145 243.164,228.606 "/>
    <polygon style="fill: none; fill-opacity:0; stroke-width: 1; stroke: #000000" points="248.61,238.37 237.531,236.868 242.413,234.145 243.164,228.606 "/>
    <polygon style="fill: #000000" points="209.369,211.615 220.448,213.117 215.565,215.84 214.814,221.379 "/>
    <polygon style="fill: none; fill-opacity:0; stroke-width: 1; stroke: #000000" points="209.369,211.615 220.448,213.117 215.565,215.84 214.814,221.379 "/>
  </g>
  <g>
    <g>
      <rect style="fill: #ffffff" x="150" y="70" width="190" height="80"/>
      <rect style="fill: none; fill-opacity:0; stroke-width: 2; stroke: #000000" x="150" y="70" width="190" height="80"/>
    </g>
    <text font-size="12.8" style="fill: #000000;text-anchor:start;font-family:sans-serif;font-style:normal;font-weight:normal" x="160" y="90">
      <tspan x="160" y="90">rack</tspan>
    </text>
    <g>
      <rect style="fill: #ffffff" x="200" y="80" width="130" height="20"/>
      <rect style="fill: none; fill-opacity:0; stroke-width: 1; stroke: #000000" x="200" y="80" width="130" height="20"/>
    </g>
    <g>
      <rect style="fill: #ffffff" x="200" y="100" width="130" height="20"/>
      <rect style="fill: none; fill-opacity:0; stroke-width: 1; stroke: #000000" x="200" y="100" width="130" height="20"/>
    </g>
    <g>
      <rect style="fill: #ffffff" x="200" y="120" width="130" height="20"/>
      <rect style="fill: none; fill-opacity:0; stroke-width: 1; stroke: #000000" x="200" y="120" width="130" height="20"/>
    </g>
    <text font-size="7.33778" style="fill: #000000;text-anchor:start;font-family:sans-serif;font-style:normal;font-weight:normal" x="240" y="90">
      <tspan x="240" y="90">adapter</tspan>
    </text>
    <text font-size="7.33778" style="fill: #000000;text-anchor:start;font-family:sans-serif;font-style:normal;font-weight:normal" x="240" y="110">
      <tspan x="240" y="110">middleware</tspan>
    </text>
    <text font-size="7.33778" style="fill: #000000;text-anchor:start;font-family:sans-serif;font-style:normal;font-weight:normal" x="240" y="130">
      <tspan x="240" y="130">handler</tspan>
    </text>
    <text font-size="12.8" style="fill: #000000;text-anchor:start;font-family:sans-serif;font-style:normal;font-weight:normal" x="270" y="110">
      <tspan x="270" y="110"></tspan>
    </text>
    <text font-size="12.8" style="fill: #000000;text-anchor:start;font-family:sans-serif;font-style:normal;font-weight:normal" x="260" y="130">
      <tspan x="260" y="130"></tspan>
    </text>
  </g>
  <g>
    <g>
      <rect style="fill: #ffffff" x="210" y="240" width="170" height="60"/>
      <rect style="fill: none; fill-opacity:0; stroke-width: 2; stroke: #000000" x="210" y="240" width="170" height="60"/>
    </g>
    <text font-size="12.8" style="fill: #000000;text-anchor:start;font-family:sans-serif;font-style:normal;font-weight:normal" x="210" y="300">
      <tspan x="210" y="300"></tspan>
    </text>
    <text font-size="12.8" style="fill: #000000;text-anchor:start;font-family:sans-serif;font-style:normal;font-weight:normal" x="240" y="280">
      <tspan x="240" y="280"></tspan>
    </text>
    <text font-size="12.8" style="fill: #000000;text-anchor:start;font-family:sans-serif;font-style:normal;font-weight:normal" x="220" y="260">
      <tspan x="220" y="260">HTTP</tspan>
    </text>
    <g>
      <rect style="fill: #ffffff" x="270" y="250" width="50" height="20"/>
      <rect style="fill: none; fill-opacity:0; stroke-width: 1; stroke: #000000" x="270" y="250" width="50" height="20"/>
    </g>
    <text font-size="7.33778" style="fill: #000000;text-anchor:start;font-family:sans-serif;font-style:normal;font-weight:normal" x="280" y="260">
      <tspan x="280" y="260">browser</tspan>
    </text>
    <g>
      <rect style="fill: #ffffff" x="320" y="250" width="50" height="20"/>
      <rect style="fill: none; fill-opacity:0; stroke-width: 1; stroke: #000000" x="320" y="250" width="50" height="20"/>
    </g>
    <text font-size="7.33778" style="fill: #000000;text-anchor:start;font-family:sans-serif;font-style:normal;font-weight:normal" x="330" y="260">
      <tspan x="330" y="260">curl</tspan>
    </text>
    <text font-size="12.8" style="fill: #000000;text-anchor:start;font-family:sans-serif;font-style:normal;font-weight:normal" x="295" y="270">
      <tspan x="295" y="270"></tspan>
    </text>
    <g>
      <rect style="fill: #ffffff" x="270" y="270" width="100" height="20"/>
      <rect style="fill: none; fill-opacity:0; stroke-width: 1; stroke: #000000" x="270" y="270" width="100" height="20"/>
    </g>
    <text font-size="7.33778" style="fill: #000000;text-anchor:start;font-family:sans-serif;font-style:normal;font-weight:normal" x="290" y="280">
      <tspan x="290" y="280">(reverse) proxy</tspan>
    </text>
    <text font-size="12.8" style="fill: #000000;text-anchor:start;font-family:sans-serif;font-style:normal;font-weight:normal" x="350" y="260">
      <tspan x="350" y="260"></tspan>
    </text>
  </g>
</svg>
